<?xml version="1.0" encoding="iso-8859-1"?>
<!-- Generator: Adobe Illustrator 19.0.0, SVG Export Plug-In . SVG Version: 6.00 Build 0)  -->
<svg version="1.1" id="Capa_1" xmlns="http://www.w3.org/2000/svg" xmlns:xlink="http://www.w3.org/1999/xlink" x="0px" y="0px"
	 viewBox="0 0 58 58" style="enable-background:new 0 0 58 58;" xml:space="preserve">
<g>
	<g>
		<path d="M50.647,23.528c-0.516-1.088-1.275-2.634-2.176-4.323l-0.576-1.153c-0.05-0.1-0.118-0.184-0.195-0.26
			C45.21,13.336,41.945,8.5,39.5,8.5h-21c-1.088,0-2.339,0.962-3.612,2.418l-4.18-5.056c-0.323-0.392-0.89-0.479-1.317-0.2
			L5.453,8.234C5.186,8.409,5.018,8.701,5.001,9.02C4.985,9.339,5.122,9.647,5.37,9.848l6.191,5.022L3.73,13.026
			c-0.273-0.064-0.555-0.013-0.783,0.141c-0.23,0.153-0.387,0.395-0.433,0.668l-1,6c-0.051,0.302,0.04,0.609,0.245,0.836
			C1.949,20.881,2.219,21,2.5,21c0.023,0,0.044,0,0.066-0.002l6.241-0.416c-0.586,1.141-1.083,2.163-1.455,2.947
			C4.491,23.772,0,25.638,0,31.5c0,3.826,3.509,9.089,8.94,13.408C15.008,49.733,22.319,52.5,29,52.5s13.992-2.767,20.06-7.592
			C54.491,40.589,58,35.326,58,31.5C58,25.638,53.509,23.772,50.647,23.528z M48.718,24.172C46.434,25.716,41.835,28.5,39.5,28.5
			c-1.61,0-3.244-0.467-4.976-0.961C32.738,27.028,30.89,26.5,29,26.5s-3.738,0.528-5.524,1.039C21.744,28.033,20.11,28.5,18.5,28.5
			c-2.332,0-6.933-2.784-9.218-4.328l1.772-3.544c0.202-0.38,0.405-0.756,0.61-1.128h34.671c0.207,0.375,0.412,0.756,0.616,1.14
			L48.718,24.172z M18.5,10.5h21c1.088,0,3.355,3.016,5.698,7H12.802C15.144,13.516,17.411,10.5,18.5,10.5z M9.736,7.826l3.88,4.693
			c-0.217,0.297-0.433,0.602-0.648,0.917L7.695,9.159L9.736,7.826z M4.311,15.218l6.575,1.547c-0.199,0.343-0.394,0.686-0.585,1.028
			c-0.077,0.076-0.145,0.16-0.195,0.26l-0.226,0.453l-6.185,0.412L4.311,15.218z M29,50.5c-14.226,0-27-12.905-27-19
			c0-5.255,4.42-5.908,5.701-5.987C9.175,26.54,15.073,30.5,18.5,30.5c1.89,0,3.738-0.528,5.524-1.039
			C25.756,28.967,27.39,28.5,29,28.5s3.244,0.467,4.976,0.961C35.762,29.972,37.61,30.5,39.5,30.5c3.427,0,9.325-3.959,10.798-4.987
			C51.585,25.593,56,26.248,56,31.5C56,37.595,43.226,50.5,29,50.5z"/>
		<path d="M44.26,23.5c-1.069-1.85-3.061-3-5.196-3s-4.127,1.149-5.196,3c-0.18,0.31-0.18,0.691,0,1.001c1.069,1.85,3.061,3,5.196,3
			s4.127-1.149,5.196-3C44.439,24.191,44.439,23.809,44.26,23.5z M39.063,25.5c-1.22,0-2.369-0.563-3.122-1.5
			c0.753-0.937,1.902-1.5,3.122-1.5s2.369,0.563,3.122,1.5C41.433,24.937,40.283,25.5,39.063,25.5z"/>
		<path d="M19.063,20.5c-2.136,0-4.127,1.149-5.196,3c-0.18,0.31-0.18,0.691,0,1.001c1.069,1.85,3.06,3,5.196,3s4.127-1.149,5.196-3
			c0.18-0.31,0.18-0.691,0-1.001C23.19,21.649,21.199,20.5,19.063,20.5z M19.063,25.5c-1.22,0-2.369-0.563-3.122-1.5
			c0.753-0.937,1.902-1.5,3.122-1.5s2.369,0.563,3.122,1.5C21.433,24.937,20.283,25.5,19.063,25.5z"/>
		<path d="M50.963,33.156C50.855,33.225,40.126,40,33.5,40c-6.443,0-13.019-3.596-18.303-6.485l-0.719-0.393
			c-6.031-3.29-9.476-0.51-9.619-0.39C4.625,32.928,4.492,33.22,4.5,33.525c0.008,0.306,0.155,0.591,0.4,0.774
			c0.247,0.185,6.106,4.57,10.614,7.074c2.231,1.24,4.435,1.575,6.369,1.575c1.333,0,2.538-0.159,3.535-0.291
			C26.06,42.573,26.613,42.5,27,42.5l0.297,0.003c5.161,0.072,9.544-0.453,13.006-1.55c6.382-2.024,11.588-5.992,11.807-6.16
			c0.424-0.326,0.517-0.928,0.21-1.367C52.013,32.989,51.415,32.87,50.963,33.156z M25.157,40.675
			c-2.312,0.307-5.479,0.725-8.672-1.049c-3.116-1.731-7.015-4.475-9.033-5.935c1.209-0.309,3.246-0.353,6.069,1.187l0.717,0.392
			c3.386,1.852,7.282,3.983,11.405,5.342C25.487,40.631,25.324,40.653,25.157,40.675z"/>
	</g>
</g>
<g>
</g>
<g>
</g>
<g>
</g>
<g>
</g>
<g>
</g>
<g>
</g>
<g>
</g>
<g>
</g>
<g>
</g>
<g>
</g>
<g>
</g>
<g>
</g>
<g>
</g>
<g>
</g>
<g>
</g>
</svg>
